<?xml version="1.0" standalone="no"?>
<!DOCTYPE svg PUBLIC "-//W3C//DTD SVG 20010904//EN"
 "http://www.w3.org/TR/2001/REC-SVG-20010904/DTD/svg10.dtd">
<svg version="1.0" xmlns="http://www.w3.org/2000/svg"
 width="700.000000pt" height="700.000000pt" viewBox="0 0 700.000000 700.000000"
 preserveAspectRatio="xMidYMid meet">
<metadata>
Created by potrace 1.14, written by Peter Selinger 2001-2017
</metadata>
<g transform="translate(0.000000,700.000000) scale(0.100000,-0.100000)"
fill="#000000" stroke="none">
<path d="M2525 6989 c-20 -6 -124 -103 -320 -299 l-290 -290 -463 0 c-512 0
-498 2 -538 -64 -17 -28 -19 -61 -24 -365 l-5 -335 -240 -88 c-131 -48 -251
-96 -265 -106 -35 -26 -62 -81 -56 -117 2 -16 130 -376 285 -799 l281 -769 0
-1520 c0 -1493 0 -1521 20 -1561 36 -74 5 -70 600 -76 l535 -5 87 -240 c103
-283 112 -302 157 -332 60 -41 -25 -67 1171 370 278 102 518 190 533 196 20 8
257 11 778 11 818 0 785 -2 825 57 17 25 20 54 24 278 l5 249 484 177 c266 98
496 186 510 196 36 27 63 82 57 118 -2 17 -241 678 -530 1469 l-526 1440 0
854 c0 773 -2 857 -16 889 -32 67 -36 67 -359 73 l-290 5 -87 240 c-48 132
-96 256 -105 275 -27 51 -79 83 -128 77 -22 -2 -404 -138 -850 -301 -445 -163
-815 -296 -822 -296 -7 0 -13 10 -13 23 0 68 -21 101 -148 229 -120 122 -125
129 -114 153 47 103 -53 215 -163 184z m2089 -452 c25 -70 46 -130 46 -132 0
-3 -194 -5 -432 -5 -237 0 -428 3 -425 7 18 17 753 278 758 268 4 -5 27 -68
53 -138z m-3012 -450 c-23 -24 -47 -58 -52 -77 -31 -106 84 -204 185 -158 24
11 31 6 153 -114 98 -98 136 -128 167 -137 59 -16 114 -13 162 9 l42 19 116
-145 c123 -153 155 -179 240 -191 77 -10 130 12 210 88 l71 68 95 -95 c102
-104 132 -124 179 -124 78 0 140 59 140 133 0 55 -17 81 -124 186 l-95 95 68
71 c76 80 98 133 88 210 -9 65 -31 104 -90 157 l-52 48 1123 0 1122 0 0 -2630
0 -2630 -2090 0 -2090 0 0 2630 0 2630 237 0 237 0 -42 -43z m-713 -1134 c0
-272 -3 -381 -10 -363 -24 59 -239 651 -239 658 0 7 214 90 238 91 9 1 12 -82
11 -386z m5112 -2211 c197 -540 359 -985 359 -990 0 -6 -715 -272 -733 -272
-4 0 -7 516 -6 1148 0 783 3 1139 10 1122 6 -14 172 -467 370 -1008z m-2804
-2149 c-4 -4 -176 -68 -381 -143 l-375 -137 -50 137 c-28 76 -51 140 -51 144
0 3 194 6 432 6 237 0 428 -3 425 -7z"/>
<path d="M2092 4949 c-91 -12 -158 -33 -253 -81 -67 -33 -103 -60 -175 -133
-78 -77 -98 -105 -137 -185 -26 -52 -53 -124 -61 -160 -23 -94 -21 -259 4
-354 125 -490 698 -711 1118 -432 386 256 444 796 122 1127 -162 166 -394 248
-618 218z"/>
<path d="M3300 4633 c-60 -12 -110 -75 -110 -141 0 -39 38 -93 80 -114 32 -17
83 -18 610 -18 527 0 578 1 610 18 98 49 105 179 13 239 -25 17 -66 18 -603
19 -316 1 -586 -1 -600 -3z"/>
<path d="M4899 4630 c-46 -13 -77 -40 -94 -82 -19 -49 -13 -90 21 -135 69 -91
214 -52 239 64 18 88 -80 178 -166 153z"/>
<path d="M3252 4050 c-84 -52 -79 -176 10 -230 32 -19 52 -20 861 -20 895 0
871 -1 914 54 33 41 38 90 14 139 -40 83 27 77 -923 77 -828 0 -844 0 -876
-20z"/>
<path d="M2002 3110 c-174 -46 -316 -143 -418 -287 -93 -129 -134 -260 -134
-425 0 -292 149 -531 413 -664 203 -103 457 -97 672 14 93 48 237 191 290 285
69 126 89 203 89 357 1 115 -3 146 -22 210 -81 257 -277 446 -530 511 -100 25
-260 25 -360 -1z m330 -279 c118 -41 207 -121 266 -240 36 -74 37 -77 37 -195
0 -115 -2 -124 -32 -189 -57 -120 -179 -224 -302 -257 -24 -6 -78 -12 -120
-11 -229 0 -414 158 -453 387 -39 232 121 466 355 519 76 18 173 12 249 -14z"/>
<path d="M2315 2631 c-16 -10 -68 -57 -114 -104 l-83 -85 -61 25 c-91 37 -154
21 -197 -50 -35 -57 -19 -139 33 -176 40 -29 222 -100 255 -101 57 0 95 27
230 164 99 101 133 142 142 173 16 53 1 102 -46 143 -28 24 -44 30 -82 30 -29
0 -59 -7 -77 -19z"/>
<path d="M3252 2790 c-84 -52 -79 -175 10 -230 32 -20 48 -20 630 -18 l598 3
36 36 c63 63 54 165 -18 209 -32 19 -49 20 -628 20 -579 0 -596 -1 -628 -20z"/>
<path d="M4846 2780 c-67 -59 -69 -151 -5 -204 55 -47 123 -46 179 0 63 53 60
145 -6 204 -29 25 -43 30 -84 30 -41 0 -55 -5 -84 -30z"/>
<path d="M3261 2232 c-40 -21 -71 -73 -71 -117 0 -44 31 -96 71 -117 32 -17
79 -18 869 -18 810 0 836 1 867 20 45 27 66 64 66 115 0 51 -21 88 -66 115
-31 19 -57 20 -867 20 -790 0 -837 -1 -869 -18z"/>
</g>
</svg>
